<svg width="24" height="24" viewBox="0 0 24 24" fill="none" xmlns="http://www.w3.org/2000/svg">
<path d="M4.12782 9.47658C5.40862 9.47658 6.44692 8.43828 6.44692 7.15748C6.44692 5.87668 5.40862 4.83838 4.12782 4.83838C2.84701 4.83838 1.80872 5.87668 1.80872 7.15748C1.80872 8.43828 2.84701 9.47658 4.12782 9.47658Z" fill="#8CC453"/>
<path d="M5.41435 9.92358H2.84127C2.49867 9.92358 2.21802 10.2042 2.21802 10.5468V20.3836C2.21802 20.7262 2.49867 21.0069 2.84127 21.0069H3.82952V18.8236C3.82952 18.7297 3.90624 18.653 4.00011 18.653H4.25551C4.34938 18.653 4.4261 18.7297 4.4261 18.8236V21.0069H5.41435C5.75695 21.0069 6.0376 20.7262 6.0376 20.3836V10.5468C6.0376 10.2042 5.75695 9.92358 5.41435 9.92358Z" fill="#8CC453"/>
<path d="M12.2702 12.0191C13.551 12.0191 14.5893 10.9808 14.5893 9.69996C14.5893 8.41916 13.551 7.38086 12.2702 7.38086C10.9893 7.38086 9.95105 8.41916 9.95105 9.69996C9.95105 10.9808 10.9893 12.0191 12.2702 12.0191Z" fill="#8CC453"/>
<path d="M13.5567 12.4666H10.9836C10.641 12.4666 10.3604 12.7472 10.3604 13.0898V22.9266C10.3604 23.2692 10.641 23.5498 10.9836 23.5498H11.9719V21.3665C11.9719 21.2727 12.0486 21.1959 12.1424 21.1959H12.3978C12.4917 21.1959 12.5684 21.2727 12.5684 21.3665V23.5498H13.5567C13.8993 23.5498 14.1799 23.2692 14.1799 22.9266V13.0898C14.1799 12.7472 13.8993 12.4666 13.5567 12.4666Z" fill="#8CC453"/>
<path d="M19.8721 5.0884C21.1529 5.0884 22.1912 4.0501 22.1912 2.7693C22.1912 1.48849 21.1529 0.450195 19.8721 0.450195C18.5913 0.450195 17.553 1.48849 17.553 2.7693C17.553 4.0501 18.5913 5.0884 19.8721 5.0884Z" fill="#8CC453"/>
<path d="M21.1587 5.53516H18.5856C18.243 5.53516 17.9624 5.81581 17.9624 6.15841V15.9952C17.9624 16.3378 18.243 16.6184 18.5856 16.6184H19.5739V14.4351C19.5739 14.3413 19.6506 14.2645 19.7445 14.2645H19.9999C20.0937 14.2645 20.1704 14.3413 20.1704 14.4351V16.6184H21.1587C21.5013 16.6184 21.782 16.3378 21.782 15.9952V6.15841C21.782 5.81581 21.5013 5.53516 21.1587 5.53516Z" fill="#8CC453"/>
</svg>
